# xmcd
#
# Track frame offsets:
#	182
#	13452
#	26227
#	52147
#	65837
#	85935
#	98210
#	109607
#	123977
#	136112
#	146757
#	159430
#	172692
#	192815
#	206320
#	219542
#	232790
#	243897
#	251560
#	265092
#	278947
#	290090
#	302112
#	315305
#	329857
#
# Disc length: 4534
#
# Revision: 4
# Processed by: cddbd v1.5.1PL0 Copyright (c) Steve Scherf et al.
# Submitted via: audiograbber 1.82.02
# Normalized: r3:DSETVAR1
#
DISCID=7111b419
DTITLE=Various Artist - 50 Fabulous Swing Hits Of The 40's - The Girls
DYEAR=1940
DGENRE=Oldies
TTITLE0=Billie Holliday - That Old Devil Called Love
TTITLE1=Judy Garland - Over The Rainbow
TTITLE2=Ruby Keeler and Dick Powell - Forty Second Street
TTITLE3=Bing Crosby - Pistol Packin' Mama
TTITLE4=Ella Fitzgerald - I Want To Be Happy
TTITLE5=Bing Crosby and Connie Boswell - Bob White (Whatcha Gonna Swing Tonight-)
TTITLE6=Judy Garland and Bing Crosby - For Me And My Gal
TTITLE7=Andrew Sisters: The - Rum And Coca Cola
TTITLE8=Ella Fitzgerald - A-Tisket, A-Tisket
TTITLE9=Lena Horne - My Blue Heaven
TTITLE10=Sarah Vaughn - What A Difference A Day Made
TTITLE11=Billie Holliday - St Louis Blues
TTITLE12=Carmen MacRae - Body And Soul
TTITLE13=Annie Ross - C'est Si Bon
TTITLE14=Lena Horne - Honeysuckle Rose
TTITLE15=Ella Fitzgerald - Little White Lies
TTITLE16=Peggy Lee - Up A Lazy River
TTITLE17=Keely Smith - Fly Me To The Moon
TTITLE18=Billie Holliday - Georgia On My Mind
TTITLE19=Sarah Vaughn - September Song
TTITLE20=Ella Fitzgerald - Baby Won't You Please Come Home
TTITLE21=Billie Holliday - I Hear Music
TTITLE22=Peggy Lee - Somebody Loves Me
TTITLE23=Sarah Vaughn - Lover Man
TTITLE24=Lena Horne - The Lady Is A Tramp
EXTD=SPACK032
EXTT0=
EXTT1=
EXTT2=
EXTT3=
EXTT4=
EXTT5=
EXTT6=
EXTT7=
EXTT8=
EXTT9=
EXTT10=
EXTT11=
EXTT12=
EXTT13=
EXTT14=
EXTT15=
EXTT16=
EXTT17=
EXTT18=
EXTT19=
EXTT20=
EXTT21=
EXTT22=
EXTT23=
EXTT24=
PLAYORDER=
